<svg xmlns="http://www.w3.org/2000/svg" width="850" height="380" viewBox="0 0 850 380">
  <style>
    text {
      font-family: 'Consolas', 'Monaco', 'Menlo', 'Ubuntu Mono', monospace;
      font-size: 14px;
      white-space: pre;
    }
  </style>

  <!-- Background -->
  <rect width="850" height="380" fill="#161b22"/>

  <!-- ASCII Art (Octocat) -->
  <text fill="#58a6ff">
    <tspan x="20" y="45">                                     </tspan>
    <tspan x="20" y="61">              ████████               </tspan>
    <tspan x="20" y="77">          ████▒▒▒▒▒▒▒▒████           </tspan>
    <tspan x="20" y="93">        ██▒▒▒▒▒▒▒▒▒▒▒▒▒▒▒▒██         </tspan>
    <tspan x="20" y="109">      ██▒▒▒▒▒▒▒▒▒▒▒▒▒▒▒▒▒▒▒▒██       </tspan>
    <tspan x="20" y="125">    ██▒▒▒▒▒▒▒▒▒▒▒▒▒▒▒▒▒▒▒▒▒▒▒▒██     </tspan>
    <tspan x="20" y="141">    ██▒▒▒▒▒▒▒▒▒▒▒▒▒▒▒▒▒▒▒▒▒▒▒▒██     </tspan>
    <tspan x="20" y="157">  ██▒▒▒▒▒▒▒▒▒▒▒▒▒▒▒▒▒▒▒▒▒▒▒▒▒▒▒▒██   </tspan>
    <tspan x="20" y="173">  ██▒▒▒▒▒▒▒▒████▒▒▒▒████▒▒▒▒▒▒▒▒██   </tspan>
    <tspan x="20" y="189">  ██▒▒▒▒▒▒▒▒████▒▒▒▒████▒▒▒▒▒▒▒▒██   </tspan>
    <tspan x="20" y="205">  ██▒▒▒▒▒▒▒▒▒▒▒▒▒▒▒▒▒▒▒▒▒▒▒▒▒▒▒▒██   </tspan>
    <tspan x="20" y="221">  ██▒▒▒▒▒▒▒▒▒▒▒▒████▒▒▒▒▒▒▒▒▒▒▒▒██   </tspan>
    <tspan x="20" y="237">    ██▒▒▒▒▒▒▒▒▒▒▒▒▒▒▒▒▒▒▒▒▒▒▒▒██     </tspan>
    <tspan x="20" y="253">    ██▒▒▒▒██▒▒▒▒▒▒▒▒▒▒▒▒██▒▒▒▒██     </tspan>
    <tspan x="20" y="269">      ██▒▒▒▒████████████▒▒▒▒██       </tspan>
    <tspan x="20" y="285">        ██▒▒▒▒▒▒▒▒▒▒▒▒▒▒▒▒██         </tspan>
    <tspan x="20" y="301">          ████▒▒▒▒▒▒▒▒████           </tspan>
    <tspan x="20" y="317">              ████████               </tspan>
  </text>

  <!-- User title -->
  <text x="340" y="45" fill="#58a6ff" font-weight="bold">cbabil@github</text>
  <text x="340" y="61" fill="#6e7681">─────────────────────────────────</text>

  <!-- System info -->
  <text x="340" y="85"><tspan fill="#ffa657">OS</tspan><tspan fill="#6e7681">..................</tspan><tspan fill="#a5d6ff">GitHub</tspan></text>
  <text x="340" y="105"><tspan fill="#ffa657">Host</tspan><tspan fill="#6e7681">................</tspan><tspan fill="#a5d6ff">github.com/cbabil</tspan></text>
  <text x="340" y="125"><tspan fill="#ffa657">Uptime</tspan><tspan fill="#6e7681">..............</tspan><tspan fill="#a5d6ff">4468 days (12y 2m)</tspan></text>
  <text x="340" y="145"><tspan fill="#ffa657">Repos</tspan><tspan fill="#6e7681">...............</tspan><tspan fill="#a5d6ff">14</tspan></text>
  <text x="340" y="165"><tspan fill="#ffa657">Commits</tspan><tspan fill="#6e7681">.............</tspan><tspan fill="#a5d6ff">321</tspan></text>
  <text x="340" y="185"><tspan fill="#ffa657">Stars</tspan><tspan fill="#6e7681">...............</tspan><tspan fill="#a5d6ff">1</tspan></text>
  <text x="340" y="205"><tspan fill="#ffa657">Followers</tspan><tspan fill="#6e7681">...........</tspan><tspan fill="#a5d6ff">1</tspan></text>

  <!-- Languages -->
  <text x="340" y="235" fill="#6e7681">─────────────────────────────────</text>
  <text x="340" y="255"><tspan fill="#ffa657">Languages</tspan><tspan fill="#6e7681">...........</tspan><tspan fill="#a5d6ff">TypeScript (59.8%), Python (28.5%), CSS (8.1%), JavaScript (2.2%)</tspan></text>

  <!-- Color blocks (terminal palette) -->
  <text x="340" y="285" fill="#6e7681">─────────────────────────────────</text>
  <rect x="340" y="295" width="30" height="20" fill="#24292f"/>
  <rect x="375" y="295" width="30" height="20" fill="#f85149"/>
  <rect x="410" y="295" width="30" height="20" fill="#3fb950"/>
  <rect x="445" y="295" width="30" height="20" fill="#d29922"/>
  <rect x="480" y="295" width="30" height="20" fill="#58a6ff"/>
  <rect x="515" y="295" width="30" height="20" fill="#bc8cff"/>
  <rect x="550" y="295" width="30" height="20" fill="#39c5cf"/>
  <rect x="585" y="295" width="30" height="20" fill="#ffffff"/>

  <rect x="340" y="320" width="30" height="20" fill="#6e7681"/>
  <rect x="375" y="320" width="30" height="20" fill="#ff7b72"/>
  <rect x="410" y="320" width="30" height="20" fill="#7ee787"/>
  <rect x="445" y="320" width="30" height="20" fill="#ffa657"/>
  <rect x="480" y="320" width="30" height="20" fill="#79c0ff"/>
  <rect x="515" y="320" width="30" height="20" fill="#d2a8ff"/>
  <rect x="550" y="320" width="30" height="20" fill="#a5d6ff"/>
  <rect x="585" y="320" width="30" height="20" fill="#f0f6fc"/>

  <!-- Footer -->
  <text x="700" y="365" fill="#6e7681" font-size="11">Updated: 2025-12-27</text>
</svg>