<svg xmlns="http://www.w3.org/2000/svg" width="600" height="340" viewBox="0 0 600 340">
  <style>
    .mono { font-family: 'JetBrains Mono', 'Fira Code', 'SF Mono', Consolas, monospace; }
    .ascii { font-family: monospace; font-size: 10px; white-space: pre; }
  </style>

  <!-- Background -->
  <rect width="600" height="340" fill="#ffffff" rx="10"/>

  <!-- Terminal header -->
  <rect width="600" height="30" fill="#ffffff" rx="10"/>
  <circle cx="20" cy="15" r="6" fill="#cf222e"/>
  <circle cx="40" cy="15" r="6" fill="#9a6700"/>
  <circle cx="60" cy="15" r="6" fill="#1a7f37"/>
  <text x="300" y="20" text-anchor="middle" fill="#57606a" class="mono" font-size="12">cbabil@github</text>

  <!-- ASCII Art -->
  <text x="20" y="55" fill="#0969da" class="ascii">
    <tspan x="20" dy="0">   _____ ____  ____ _____ _____ _</tspan>
    <tspan x="20" dy="12">  / ____| __ )|  _ \_   _|  __ \ |</tspan>
    <tspan x="20" dy="12"> | |   |  _ \| |_) || | | |__) | |</tspan>
    <tspan x="20" dy="12"> | |   | |_) |  _ &lt; | | |  ___/| |</tspan>
    <tspan x="20" dy="12"> | |___| |__/| |_) || |_| |    | |____</tspan>
    <tspan x="20" dy="12">  \_____\____/|____/_____|_|    |______|</tspan>
  </text>

  <!-- User info -->
  <text x="230" y="55" fill="#0969da" class="mono" font-size="14" font-weight="bold">cbabil@github</text>
  <line x1="230" y1="62" x2="400" y2="62" stroke="#57606a" stroke-width="1"/>

  <text x="230" y="82" fill="#8250df" class="mono" font-size="12">name</text>
  <text x="290" y="82" fill="#24292f" class="mono" font-size="12">cbabil</text>

  <text x="230" y="102" fill="#8250df" class="mono" font-size="12">uptime</text>
  <text x="290" y="102" fill="#24292f" class="mono" font-size="12">12y 2m</text>

  <text x="230" y="122" fill="#8250df" class="mono" font-size="12">repos</text>
  <text x="290" y="122" fill="#24292f" class="mono" font-size="12">14</text>

  <text x="230" y="142" fill="#8250df" class="mono" font-size="12">commits</text>
  <text x="290" y="142" fill="#24292f" class="mono" font-size="12">320</text>

  <text x="370" y="82" fill="#8250df" class="mono" font-size="12">stars</text>
  <text x="430" y="82" fill="#24292f" class="mono" font-size="12">1</text>

  <text x="370" y="102" fill="#8250df" class="mono" font-size="12">followers</text>
  <text x="430" y="102" fill="#24292f" class="mono" font-size="12">1</text>

  <!-- Languages section -->
  <text x="230" y="172" fill="#0969da" class="mono" font-size="12" font-weight="bold">languages</text>
  <line x1="230" y1="179" x2="400" y2="179" stroke="#57606a" stroke-width="1"/>


    <text x="230" y="195" fill="#57606a" font-size="12">TypeScript</text>
    <rect x="320" y="185" width="89" height="12" fill="#3178c6" rx="2"/>
    <text x="414" y="195" fill="#57606a" font-size="11">59.9%</text>

    <text x="230" y="217" fill="#57606a" font-size="12">Python</text>
    <rect x="320" y="207" width="42" height="12" fill="#3572A5" rx="2"/>
    <text x="367" y="217" fill="#57606a" font-size="11">28.3%</text>

    <text x="230" y="239" fill="#57606a" font-size="12">CSS</text>
    <rect x="320" y="229" width="12" height="12" fill="#663399" rx="2"/>
    <text x="337" y="239" fill="#57606a" font-size="11">8.1%</text>

    <text x="230" y="261" fill="#57606a" font-size="12">JavaScript</text>
    <rect x="320" y="251" width="3" height="12" fill="#f1e05a" rx="2"/>
    <text x="328" y="261" fill="#57606a" font-size="11">2.2%</text>

    <text x="230" y="283" fill="#57606a" font-size="12">Makefile</text>
    <rect x="320" y="273" width="2" height="12" fill="#427819" rx="2"/>
    <text x="327" y="283" fill="#57606a" font-size="11">1.5%</text>


  <!-- Footer -->
  <text x="20" y="320" fill="#57606a" class="mono" font-size="10">Building developer tools | Open source enthusiast</text>
  <text x="580" y="320" text-anchor="end" fill="#57606a" class="mono" font-size="10">Updated: 2025-12-27</text>
</svg>